<mxfile host="app.diagrams.net" modified="2024-04-05T22:04:26.511Z" agent="Mozilla/5.0 (Windows NT 10.0; Win64; x64) AppleWebKit/537.36 (KHTML, like Gecko) Chrome/123.0.0.0 Safari/537.36" etag="fo0trW0M0CRQHAsqgM3R" version="24.2.2" type="github">
  <diagram name="Page-1" id="Fgl1zo-gYxCu_BVwuSPd">
    <mxGraphModel dx="1180" dy="1945" grid="1" gridSize="10" guides="1" tooltips="1" connect="1" arrows="1" fold="1" page="1" pageScale="1" pageWidth="850" pageHeight="1100" math="0" shadow="0">
      <root>
        <mxCell id="0" />
        <mxCell id="1" parent="0" />
        <mxCell id="SaBOYFDtfnJBCHH9wNTG-1" value="&amp;nbsp;AΘΛΗΤΗΣ" style="rounded=0;whiteSpace=wrap;html=1;" vertex="1" parent="1">
          <mxGeometry x="150" y="290" width="80" height="60" as="geometry" />
        </mxCell>
        <mxCell id="SaBOYFDtfnJBCHH9wNTG-2" value="Ονομα" style="ellipse;whiteSpace=wrap;html=1;align=center;rotation=0;" vertex="1" parent="1">
          <mxGeometry x="40" y="230" width="100" height="40" as="geometry" />
        </mxCell>
        <mxCell id="SaBOYFDtfnJBCHH9wNTG-3" value="Ηλικια" style="ellipse;whiteSpace=wrap;html=1;align=center;" vertex="1" parent="1">
          <mxGeometry x="70" y="170" width="100" height="40" as="geometry" />
        </mxCell>
        <mxCell id="SaBOYFDtfnJBCHH9wNTG-4" value="" style="endArrow=none;html=1;rounded=0;exitX=0.743;exitY=0.939;exitDx=0;exitDy=0;exitPerimeter=0;entryX=0;entryY=0;entryDx=0;entryDy=0;" edge="1" parent="1" source="SaBOYFDtfnJBCHH9wNTG-2" target="SaBOYFDtfnJBCHH9wNTG-1">
          <mxGeometry relative="1" as="geometry">
            <mxPoint x="110" y="350" as="sourcePoint" />
            <mxPoint x="270" y="350" as="targetPoint" />
          </mxGeometry>
        </mxCell>
        <mxCell id="SaBOYFDtfnJBCHH9wNTG-5" value="" style="endArrow=none;html=1;rounded=0;entryX=0.658;entryY=0.96;entryDx=0;entryDy=0;entryPerimeter=0;" edge="1" parent="1" source="SaBOYFDtfnJBCHH9wNTG-1" target="SaBOYFDtfnJBCHH9wNTG-3">
          <mxGeometry width="50" height="50" relative="1" as="geometry">
            <mxPoint x="170" y="290" as="sourcePoint" />
            <mxPoint x="190" y="220" as="targetPoint" />
          </mxGeometry>
        </mxCell>
        <mxCell id="SaBOYFDtfnJBCHH9wNTG-6" value="Ομαδα" style="ellipse;whiteSpace=wrap;html=1;align=center;" vertex="1" parent="1">
          <mxGeometry x="160" y="140" width="100" height="40" as="geometry" />
        </mxCell>
        <mxCell id="SaBOYFDtfnJBCHH9wNTG-8" value="" style="endArrow=none;html=1;rounded=0;entryX=0.5;entryY=1;entryDx=0;entryDy=0;exitX=0.5;exitY=0;exitDx=0;exitDy=0;" edge="1" parent="1" source="SaBOYFDtfnJBCHH9wNTG-1" target="SaBOYFDtfnJBCHH9wNTG-6">
          <mxGeometry width="50" height="50" relative="1" as="geometry">
            <mxPoint x="160" y="310" as="sourcePoint" />
            <mxPoint x="210" y="260" as="targetPoint" />
          </mxGeometry>
        </mxCell>
        <mxCell id="SaBOYFDtfnJBCHH9wNTG-9" value="Βαρος" style="ellipse;whiteSpace=wrap;html=1;align=center;" vertex="1" parent="1">
          <mxGeometry x="220" y="190" width="100" height="40" as="geometry" />
        </mxCell>
        <mxCell id="SaBOYFDtfnJBCHH9wNTG-10" value="" style="endArrow=none;html=1;rounded=0;exitX=0.75;exitY=0;exitDx=0;exitDy=0;entryX=0.318;entryY=0.981;entryDx=0;entryDy=0;entryPerimeter=0;" edge="1" parent="1" source="SaBOYFDtfnJBCHH9wNTG-1" target="SaBOYFDtfnJBCHH9wNTG-9">
          <mxGeometry width="50" height="50" relative="1" as="geometry">
            <mxPoint x="240" y="280" as="sourcePoint" />
            <mxPoint x="290" y="230" as="targetPoint" />
          </mxGeometry>
        </mxCell>
        <mxCell id="SaBOYFDtfnJBCHH9wNTG-11" value="Ταυτοτητα" style="ellipse;whiteSpace=wrap;html=1;align=center;fontStyle=4;" vertex="1" parent="1">
          <mxGeometry x="10" y="280" width="100" height="40" as="geometry" />
        </mxCell>
        <mxCell id="SaBOYFDtfnJBCHH9wNTG-12" value="" style="endArrow=none;html=1;rounded=0;entryX=0;entryY=0.408;entryDx=0;entryDy=0;entryPerimeter=0;" edge="1" parent="1" source="SaBOYFDtfnJBCHH9wNTG-11" target="SaBOYFDtfnJBCHH9wNTG-1">
          <mxGeometry width="50" height="50" relative="1" as="geometry">
            <mxPoint x="150" y="320" as="sourcePoint" />
            <mxPoint x="200" y="357.24" as="targetPoint" />
          </mxGeometry>
        </mxCell>
        <mxCell id="SaBOYFDtfnJBCHH9wNTG-13" value="Φυλο" style="ellipse;whiteSpace=wrap;html=1;align=center;" vertex="1" parent="1">
          <mxGeometry x="10" y="330" width="100" height="40" as="geometry" />
        </mxCell>
        <mxCell id="SaBOYFDtfnJBCHH9wNTG-14" value="" style="endArrow=none;html=1;rounded=0;exitX=0.971;exitY=0.383;exitDx=0;exitDy=0;exitPerimeter=0;entryX=0;entryY=0.5;entryDx=0;entryDy=0;" edge="1" parent="1" source="SaBOYFDtfnJBCHH9wNTG-13" target="SaBOYFDtfnJBCHH9wNTG-1">
          <mxGeometry width="50" height="50" relative="1" as="geometry">
            <mxPoint x="150" y="320" as="sourcePoint" />
            <mxPoint x="200" y="270" as="targetPoint" />
          </mxGeometry>
        </mxCell>
        <mxCell id="SaBOYFDtfnJBCHH9wNTG-15" value="Υψος" style="ellipse;whiteSpace=wrap;html=1;align=center;" vertex="1" parent="1">
          <mxGeometry x="40" y="390" width="100" height="40" as="geometry" />
        </mxCell>
        <mxCell id="SaBOYFDtfnJBCHH9wNTG-16" value="" style="endArrow=none;html=1;rounded=0;entryX=0;entryY=1;entryDx=0;entryDy=0;" edge="1" parent="1" source="SaBOYFDtfnJBCHH9wNTG-15" target="SaBOYFDtfnJBCHH9wNTG-1">
          <mxGeometry width="50" height="50" relative="1" as="geometry">
            <mxPoint x="171.12" y="385.34" as="sourcePoint" />
            <mxPoint x="200" y="370.00000000000006" as="targetPoint" />
          </mxGeometry>
        </mxCell>
        <mxCell id="SaBOYFDtfnJBCHH9wNTG-17" value="ΣΥΜΜΕΤΕΧΕΙ" style="shape=rhombus;perimeter=rhombusPerimeter;whiteSpace=wrap;html=1;align=center;" vertex="1" parent="1">
          <mxGeometry x="120" y="800" width="120" height="60" as="geometry" />
        </mxCell>
        <mxCell id="SaBOYFDtfnJBCHH9wNTG-18" value="ΜΕΛΟΣ" style="shape=rhombus;perimeter=rhombusPerimeter;whiteSpace=wrap;html=1;align=center;" vertex="1" parent="1">
          <mxGeometry x="230" y="500" width="120" height="60" as="geometry" />
        </mxCell>
        <mxCell id="SaBOYFDtfnJBCHH9wNTG-19" value="ΣΥΜΜΕΤΕΧΕΙ" style="shape=rhombus;perimeter=rhombusPerimeter;whiteSpace=wrap;html=1;align=center;" vertex="1" parent="1">
          <mxGeometry x="750" y="190" width="120" height="60" as="geometry" />
        </mxCell>
        <mxCell id="SaBOYFDtfnJBCHH9wNTG-20" value="" style="endArrow=none;html=1;rounded=0;entryX=0.75;entryY=1;entryDx=0;entryDy=0;exitX=0.5;exitY=0;exitDx=0;exitDy=0;" edge="1" parent="1" source="SaBOYFDtfnJBCHH9wNTG-18" target="SaBOYFDtfnJBCHH9wNTG-1">
          <mxGeometry width="50" height="50" relative="1" as="geometry">
            <mxPoint x="230" y="540" as="sourcePoint" />
            <mxPoint x="280" y="490" as="targetPoint" />
          </mxGeometry>
        </mxCell>
        <mxCell id="SaBOYFDtfnJBCHH9wNTG-21" value="" style="endArrow=none;html=1;rounded=0;entryX=0.5;entryY=1;entryDx=0;entryDy=0;exitX=0.5;exitY=0;exitDx=0;exitDy=0;" edge="1" parent="1" source="SaBOYFDtfnJBCHH9wNTG-17" target="SaBOYFDtfnJBCHH9wNTG-1">
          <mxGeometry width="50" height="50" relative="1" as="geometry">
            <mxPoint x="230" y="440" as="sourcePoint" />
            <mxPoint x="280" y="390" as="targetPoint" />
          </mxGeometry>
        </mxCell>
        <mxCell id="SaBOYFDtfnJBCHH9wNTG-22" value="" style="endArrow=none;html=1;rounded=0;entryX=1;entryY=0;entryDx=0;entryDy=0;exitX=0;exitY=0.5;exitDx=0;exitDy=0;" edge="1" parent="1" source="SaBOYFDtfnJBCHH9wNTG-19" target="SaBOYFDtfnJBCHH9wNTG-1">
          <mxGeometry width="50" height="50" relative="1" as="geometry">
            <mxPoint x="300" y="450" as="sourcePoint" />
            <mxPoint x="350" y="400" as="targetPoint" />
          </mxGeometry>
        </mxCell>
        <mxCell id="SaBOYFDtfnJBCHH9wNTG-23" value="ΟΜΑΔΑ" style="whiteSpace=wrap;html=1;align=center;" vertex="1" parent="1">
          <mxGeometry x="320" y="610" width="100" height="40" as="geometry" />
        </mxCell>
        <mxCell id="SaBOYFDtfnJBCHH9wNTG-24" value="" style="endArrow=none;html=1;rounded=0;entryX=0.5;entryY=1;entryDx=0;entryDy=0;exitX=0.5;exitY=0;exitDx=0;exitDy=0;" edge="1" parent="1" source="SaBOYFDtfnJBCHH9wNTG-23" target="SaBOYFDtfnJBCHH9wNTG-18">
          <mxGeometry width="50" height="50" relative="1" as="geometry">
            <mxPoint x="200" y="640" as="sourcePoint" />
            <mxPoint x="140" y="590" as="targetPoint" />
          </mxGeometry>
        </mxCell>
        <mxCell id="SaBOYFDtfnJBCHH9wNTG-25" value="Ον_Χωρα" style="ellipse;whiteSpace=wrap;html=1;align=center;" vertex="1" parent="1">
          <mxGeometry x="220" y="650" width="100" height="40" as="geometry" />
        </mxCell>
        <mxCell id="SaBOYFDtfnJBCHH9wNTG-26" value="" style="endArrow=none;html=1;rounded=0;exitX=0.715;exitY=0.037;exitDx=0;exitDy=0;exitPerimeter=0;entryX=0;entryY=1;entryDx=0;entryDy=0;" edge="1" parent="1" source="SaBOYFDtfnJBCHH9wNTG-25" target="SaBOYFDtfnJBCHH9wNTG-23">
          <mxGeometry width="50" height="50" relative="1" as="geometry">
            <mxPoint x="250" y="700" as="sourcePoint" />
            <mxPoint x="300" y="650" as="targetPoint" />
          </mxGeometry>
        </mxCell>
        <mxCell id="SaBOYFDtfnJBCHH9wNTG-27" value="Ολυμπιακη_Επ" style="ellipse;whiteSpace=wrap;html=1;align=center;" vertex="1" parent="1">
          <mxGeometry x="325" y="670" width="100" height="40" as="geometry" />
        </mxCell>
        <mxCell id="SaBOYFDtfnJBCHH9wNTG-28" value="" style="endArrow=none;html=1;rounded=0;exitX=0.6;exitY=0;exitDx=0;exitDy=0;exitPerimeter=0;entryX=0.5;entryY=1;entryDx=0;entryDy=0;" edge="1" parent="1" source="SaBOYFDtfnJBCHH9wNTG-27" target="SaBOYFDtfnJBCHH9wNTG-23">
          <mxGeometry width="50" height="50" relative="1" as="geometry">
            <mxPoint x="290" y="750" as="sourcePoint" />
            <mxPoint x="300" y="690" as="targetPoint" />
          </mxGeometry>
        </mxCell>
        <mxCell id="SaBOYFDtfnJBCHH9wNTG-31" value="ΔΙΟΡΓΑΝΩΣΗ" style="whiteSpace=wrap;html=1;align=center;" vertex="1" parent="1">
          <mxGeometry x="663.66" y="810" width="100" height="40" as="geometry" />
        </mxCell>
        <mxCell id="SaBOYFDtfnJBCHH9wNTG-32" value="ΣΥΜΜΕΤΕΧΕΙ" style="shape=rhombus;perimeter=rhombusPerimeter;whiteSpace=wrap;html=1;align=center;" vertex="1" parent="1">
          <mxGeometry x="500" y="690" width="120" height="60" as="geometry" />
        </mxCell>
        <mxCell id="SaBOYFDtfnJBCHH9wNTG-33" value="" style="endArrow=none;html=1;rounded=0;exitX=1;exitY=1;exitDx=0;exitDy=0;entryX=0;entryY=0.5;entryDx=0;entryDy=0;" edge="1" parent="1" source="SaBOYFDtfnJBCHH9wNTG-23" target="SaBOYFDtfnJBCHH9wNTG-32">
          <mxGeometry width="50" height="50" relative="1" as="geometry">
            <mxPoint x="320" y="800" as="sourcePoint" />
            <mxPoint x="370" y="750" as="targetPoint" />
          </mxGeometry>
        </mxCell>
        <mxCell id="SaBOYFDtfnJBCHH9wNTG-34" value="" style="endArrow=none;html=1;rounded=0;exitX=1;exitY=0.5;exitDx=0;exitDy=0;entryX=0;entryY=0;entryDx=0;entryDy=0;" edge="1" parent="1" source="SaBOYFDtfnJBCHH9wNTG-32" target="SaBOYFDtfnJBCHH9wNTG-31">
          <mxGeometry width="50" height="50" relative="1" as="geometry">
            <mxPoint x="460" y="870" as="sourcePoint" />
            <mxPoint x="550" y="970" as="targetPoint" />
          </mxGeometry>
        </mxCell>
        <mxCell id="SaBOYFDtfnJBCHH9wNTG-36" value="Χρονια" style="ellipse;whiteSpace=wrap;html=1;align=center;" vertex="1" parent="1">
          <mxGeometry x="560" y="880" width="100" height="40" as="geometry" />
        </mxCell>
        <mxCell id="SaBOYFDtfnJBCHH9wNTG-38" value="" style="endArrow=none;html=1;rounded=0;exitX=0.938;exitY=0.206;exitDx=0;exitDy=0;exitPerimeter=0;entryX=0.25;entryY=1;entryDx=0;entryDy=0;" edge="1" parent="1" source="SaBOYFDtfnJBCHH9wNTG-36" target="SaBOYFDtfnJBCHH9wNTG-31">
          <mxGeometry width="50" height="50" relative="1" as="geometry">
            <mxPoint x="505" y="710" as="sourcePoint" />
            <mxPoint x="660" y="860" as="targetPoint" />
          </mxGeometry>
        </mxCell>
        <mxCell id="SaBOYFDtfnJBCHH9wNTG-39" value="Πολη" style="ellipse;whiteSpace=wrap;html=1;align=center;" vertex="1" parent="1">
          <mxGeometry x="760" y="910" width="100" height="40" as="geometry" />
        </mxCell>
        <mxCell id="SaBOYFDtfnJBCHH9wNTG-40" value="" style="endArrow=none;html=1;rounded=0;exitX=0.5;exitY=0;exitDx=0;exitDy=0;entryX=0.75;entryY=1;entryDx=0;entryDy=0;" edge="1" parent="1" source="SaBOYFDtfnJBCHH9wNTG-39" target="SaBOYFDtfnJBCHH9wNTG-31">
          <mxGeometry width="50" height="50" relative="1" as="geometry">
            <mxPoint x="505" y="710" as="sourcePoint" />
            <mxPoint x="620" y="770" as="targetPoint" />
          </mxGeometry>
        </mxCell>
        <mxCell id="SaBOYFDtfnJBCHH9wNTG-41" value="Περιοδος" style="ellipse;whiteSpace=wrap;html=1;align=center;" vertex="1" parent="1">
          <mxGeometry x="640" y="910" width="100" height="40" as="geometry" />
        </mxCell>
        <mxCell id="SaBOYFDtfnJBCHH9wNTG-42" value="" style="endArrow=none;html=1;rounded=0;entryX=0.5;entryY=1;entryDx=0;entryDy=0;exitX=0.5;exitY=0;exitDx=0;exitDy=0;" edge="1" parent="1" source="SaBOYFDtfnJBCHH9wNTG-41" target="SaBOYFDtfnJBCHH9wNTG-31">
          <mxGeometry width="50" height="50" relative="1" as="geometry">
            <mxPoint x="545" y="670" as="sourcePoint" />
            <mxPoint x="595" y="620" as="targetPoint" />
          </mxGeometry>
        </mxCell>
        <mxCell id="SaBOYFDtfnJBCHH9wNTG-44" value="" style="endArrow=none;html=1;rounded=0;entryX=1;entryY=0.5;entryDx=0;entryDy=0;exitX=0;exitY=0.5;exitDx=0;exitDy=0;" edge="1" parent="1" source="SaBOYFDtfnJBCHH9wNTG-31" target="SaBOYFDtfnJBCHH9wNTG-17">
          <mxGeometry width="50" height="50" relative="1" as="geometry">
            <mxPoint x="440" y="720" as="sourcePoint" />
            <mxPoint x="490" y="670" as="targetPoint" />
          </mxGeometry>
        </mxCell>
        <mxCell id="SaBOYFDtfnJBCHH9wNTG-46" value="ΑΓΩΝΙΣΜΑ" style="whiteSpace=wrap;html=1;align=center;" vertex="1" parent="1">
          <mxGeometry x="930" y="589.9999999999999" width="100" height="40" as="geometry" />
        </mxCell>
        <mxCell id="SaBOYFDtfnJBCHH9wNTG-47" value="ΑΓΩΝΙΣΜΑΤΑ" style="shape=rhombus;perimeter=rhombusPerimeter;whiteSpace=wrap;html=1;align=center;" vertex="1" parent="1">
          <mxGeometry x="850" y="720" width="120" height="60" as="geometry" />
        </mxCell>
        <mxCell id="SaBOYFDtfnJBCHH9wNTG-48" value="" style="endArrow=none;html=1;rounded=0;exitX=1;exitY=0.5;exitDx=0;exitDy=0;entryX=0;entryY=0.5;entryDx=0;entryDy=0;" edge="1" parent="1" source="SaBOYFDtfnJBCHH9wNTG-31" target="SaBOYFDtfnJBCHH9wNTG-47">
          <mxGeometry width="50" height="50" relative="1" as="geometry">
            <mxPoint x="660" y="670" as="sourcePoint" />
            <mxPoint x="710" y="620" as="targetPoint" />
          </mxGeometry>
        </mxCell>
        <mxCell id="SaBOYFDtfnJBCHH9wNTG-49" value="" style="endArrow=none;html=1;rounded=0;entryX=0.5;entryY=1;entryDx=0;entryDy=0;exitX=1;exitY=0.5;exitDx=0;exitDy=0;" edge="1" parent="1" source="SaBOYFDtfnJBCHH9wNTG-47" target="SaBOYFDtfnJBCHH9wNTG-46">
          <mxGeometry width="50" height="50" relative="1" as="geometry">
            <mxPoint x="660" y="670" as="sourcePoint" />
            <mxPoint x="710" y="620" as="targetPoint" />
          </mxGeometry>
        </mxCell>
        <mxCell id="SaBOYFDtfnJBCHH9wNTG-50" value="" style="endArrow=none;html=1;rounded=0;entryX=1;entryY=0.5;entryDx=0;entryDy=0;exitX=0.5;exitY=0;exitDx=0;exitDy=0;" edge="1" parent="1" source="SaBOYFDtfnJBCHH9wNTG-46" target="SaBOYFDtfnJBCHH9wNTG-19">
          <mxGeometry width="50" height="50" relative="1" as="geometry">
            <mxPoint x="630" y="390" as="sourcePoint" />
            <mxPoint x="680" y="340" as="targetPoint" />
          </mxGeometry>
        </mxCell>
        <mxCell id="SaBOYFDtfnJBCHH9wNTG-51" value="Ον_αγων" style="ellipse;whiteSpace=wrap;html=1;align=center;" vertex="1" parent="1">
          <mxGeometry x="1050" y="500" width="100" height="40" as="geometry" />
        </mxCell>
        <mxCell id="SaBOYFDtfnJBCHH9wNTG-52" value="" style="endArrow=none;html=1;rounded=0;exitX=1;exitY=0;exitDx=0;exitDy=0;entryX=0;entryY=1;entryDx=0;entryDy=0;" edge="1" parent="1" source="SaBOYFDtfnJBCHH9wNTG-46" target="SaBOYFDtfnJBCHH9wNTG-51">
          <mxGeometry width="50" height="50" relative="1" as="geometry">
            <mxPoint x="820" y="892.07" as="sourcePoint" />
            <mxPoint x="1050" y="496.34" as="targetPoint" />
          </mxGeometry>
        </mxCell>
        <mxCell id="SaBOYFDtfnJBCHH9wNTG-53" value="" style="endArrow=none;html=1;rounded=0;exitX=0.5;exitY=1;exitDx=0;exitDy=0;entryX=1;entryY=0.5;entryDx=0;entryDy=0;" edge="1" parent="1" source="SaBOYFDtfnJBCHH9wNTG-27" target="SaBOYFDtfnJBCHH9wNTG-54">
          <mxGeometry width="50" height="50" relative="1" as="geometry">
            <mxPoint x="200" y="830" as="sourcePoint" />
            <mxPoint x="190" y="850" as="targetPoint" />
          </mxGeometry>
        </mxCell>
        <mxCell id="SaBOYFDtfnJBCHH9wNTG-54" value="Κωδικος" style="ellipse;whiteSpace=wrap;html=1;align=center;" vertex="1" parent="1">
          <mxGeometry x="270" y="720" width="100" height="40" as="geometry" />
        </mxCell>
        <mxCell id="SaBOYFDtfnJBCHH9wNTG-59" value="ΕΠΙΔΩΣΗ" style="whiteSpace=wrap;html=1;align=center;" vertex="1" parent="1">
          <mxGeometry x="630" y="396.34000000000003" width="100" height="40" as="geometry" />
        </mxCell>
        <mxCell id="SaBOYFDtfnJBCHH9wNTG-60" value="ΕΠΙΔΩΣΕΙΣ" style="shape=rhombus;perimeter=rhombusPerimeter;whiteSpace=wrap;html=1;align=center;rotation=0;" vertex="1" parent="1">
          <mxGeometry x="763.66" y="486.34" width="133.66" height="53.66" as="geometry" />
        </mxCell>
        <mxCell id="SaBOYFDtfnJBCHH9wNTG-61" value="" style="endArrow=none;html=1;rounded=0;entryX=1;entryY=1;entryDx=0;entryDy=0;exitX=0;exitY=0.5;exitDx=0;exitDy=0;" edge="1" parent="1" source="SaBOYFDtfnJBCHH9wNTG-60" target="SaBOYFDtfnJBCHH9wNTG-59">
          <mxGeometry width="50" height="50" relative="1" as="geometry">
            <mxPoint x="745" y="488.17" as="sourcePoint" />
            <mxPoint x="795" y="438.17" as="targetPoint" />
          </mxGeometry>
        </mxCell>
        <mxCell id="SaBOYFDtfnJBCHH9wNTG-62" value="" style="endArrow=none;html=1;rounded=0;entryX=1;entryY=0.5;entryDx=0;entryDy=0;exitX=0;exitY=0.5;exitDx=0;exitDy=0;" edge="1" parent="1" source="SaBOYFDtfnJBCHH9wNTG-46" target="SaBOYFDtfnJBCHH9wNTG-60">
          <mxGeometry width="50" height="50" relative="1" as="geometry">
            <mxPoint x="760" y="380" as="sourcePoint" />
            <mxPoint x="810" y="330" as="targetPoint" />
          </mxGeometry>
        </mxCell>
        <mxCell id="SaBOYFDtfnJBCHH9wNTG-63" value="ΕΠΙΔΩΣΕΙΣ" style="shape=rhombus;perimeter=rhombusPerimeter;whiteSpace=wrap;html=1;align=center;" vertex="1" parent="1">
          <mxGeometry x="390" y="350" width="120" height="60" as="geometry" />
        </mxCell>
        <mxCell id="SaBOYFDtfnJBCHH9wNTG-64" value="" style="endArrow=none;html=1;rounded=0;exitX=1;exitY=0.25;exitDx=0;exitDy=0;entryX=0;entryY=0.5;entryDx=0;entryDy=0;" edge="1" parent="1" source="SaBOYFDtfnJBCHH9wNTG-1" target="SaBOYFDtfnJBCHH9wNTG-63">
          <mxGeometry width="50" height="50" relative="1" as="geometry">
            <mxPoint x="510" y="420" as="sourcePoint" />
            <mxPoint x="560" y="370" as="targetPoint" />
          </mxGeometry>
        </mxCell>
        <mxCell id="SaBOYFDtfnJBCHH9wNTG-65" value="" style="endArrow=none;html=1;rounded=0;entryX=0;entryY=0.5;entryDx=0;entryDy=0;exitX=1;exitY=0.5;exitDx=0;exitDy=0;" edge="1" parent="1" source="SaBOYFDtfnJBCHH9wNTG-63" target="SaBOYFDtfnJBCHH9wNTG-59">
          <mxGeometry width="50" height="50" relative="1" as="geometry">
            <mxPoint x="495" y="528.17" as="sourcePoint" />
            <mxPoint x="545" y="478.17" as="targetPoint" />
          </mxGeometry>
        </mxCell>
        <mxCell id="SaBOYFDtfnJBCHH9wNTG-69" value="Θεση" style="ellipse;whiteSpace=wrap;html=1;align=center;" vertex="1" parent="1">
          <mxGeometry x="653.66" y="300" width="100" height="40" as="geometry" />
        </mxCell>
        <mxCell id="SaBOYFDtfnJBCHH9wNTG-70" value="Χρονος" style="ellipse;whiteSpace=wrap;html=1;align=center;" vertex="1" parent="1">
          <mxGeometry x="570" y="340" width="100" height="40" as="geometry" />
        </mxCell>
        <mxCell id="SaBOYFDtfnJBCHH9wNTG-71" value="Μεταλιο" style="ellipse;whiteSpace=wrap;html=1;align=center;" vertex="1" parent="1">
          <mxGeometry x="730" y="340" width="90" height="40" as="geometry" />
        </mxCell>
        <mxCell id="SaBOYFDtfnJBCHH9wNTG-73" value="ΕΠΙΔΩΣΕΙΣ" style="shape=rhombus;perimeter=rhombusPerimeter;whiteSpace=wrap;html=1;align=center;" vertex="1" parent="1">
          <mxGeometry x="643.66" y="590" width="120" height="60" as="geometry" />
        </mxCell>
        <mxCell id="SaBOYFDtfnJBCHH9wNTG-74" value="" style="endArrow=none;html=1;rounded=0;exitX=0.5;exitY=0;exitDx=0;exitDy=0;entryX=0.5;entryY=1;entryDx=0;entryDy=0;" edge="1" parent="1" source="SaBOYFDtfnJBCHH9wNTG-31" target="SaBOYFDtfnJBCHH9wNTG-73">
          <mxGeometry width="50" height="50" relative="1" as="geometry">
            <mxPoint x="600" y="670" as="sourcePoint" />
            <mxPoint x="650" y="620" as="targetPoint" />
          </mxGeometry>
        </mxCell>
        <mxCell id="SaBOYFDtfnJBCHH9wNTG-75" value="" style="endArrow=none;html=1;rounded=0;entryX=0.5;entryY=1;entryDx=0;entryDy=0;exitX=0.5;exitY=0;exitDx=0;exitDy=0;" edge="1" parent="1" source="SaBOYFDtfnJBCHH9wNTG-73" target="SaBOYFDtfnJBCHH9wNTG-59">
          <mxGeometry width="50" height="50" relative="1" as="geometry">
            <mxPoint x="600" y="670" as="sourcePoint" />
            <mxPoint x="650" y="620" as="targetPoint" />
          </mxGeometry>
        </mxCell>
        <mxCell id="SaBOYFDtfnJBCHH9wNTG-76" value="" style="endArrow=none;html=1;rounded=0;entryX=0.5;entryY=1;entryDx=0;entryDy=0;exitX=0;exitY=0;exitDx=0;exitDy=0;" edge="1" parent="1" source="SaBOYFDtfnJBCHH9wNTG-59" target="SaBOYFDtfnJBCHH9wNTG-70">
          <mxGeometry width="50" height="50" relative="1" as="geometry">
            <mxPoint x="590" y="470" as="sourcePoint" />
            <mxPoint x="640" y="420" as="targetPoint" />
          </mxGeometry>
        </mxCell>
        <mxCell id="SaBOYFDtfnJBCHH9wNTG-77" value="" style="endArrow=none;html=1;rounded=0;entryX=0.5;entryY=1;entryDx=0;entryDy=0;exitX=0.5;exitY=0;exitDx=0;exitDy=0;" edge="1" parent="1" source="SaBOYFDtfnJBCHH9wNTG-59" target="SaBOYFDtfnJBCHH9wNTG-69">
          <mxGeometry width="50" height="50" relative="1" as="geometry">
            <mxPoint x="590" y="470" as="sourcePoint" />
            <mxPoint x="640" y="420" as="targetPoint" />
          </mxGeometry>
        </mxCell>
        <mxCell id="SaBOYFDtfnJBCHH9wNTG-78" value="" style="endArrow=none;html=1;rounded=0;entryX=0.5;entryY=1;entryDx=0;entryDy=0;exitX=1;exitY=0;exitDx=0;exitDy=0;" edge="1" parent="1" source="SaBOYFDtfnJBCHH9wNTG-59" target="SaBOYFDtfnJBCHH9wNTG-71">
          <mxGeometry width="50" height="50" relative="1" as="geometry">
            <mxPoint x="590" y="470" as="sourcePoint" />
            <mxPoint x="640" y="420" as="targetPoint" />
          </mxGeometry>
        </mxCell>
        <mxCell id="SaBOYFDtfnJBCHH9wNTG-81" value="Αρ_Αθλητων" style="ellipse;whiteSpace=wrap;html=1;align=center;" vertex="1" parent="1">
          <mxGeometry x="1070" y="560" width="100" height="40" as="geometry" />
        </mxCell>
        <mxCell id="SaBOYFDtfnJBCHH9wNTG-82" value="Αρ_Ομαδων" style="ellipse;whiteSpace=wrap;html=1;align=center;" vertex="1" parent="1">
          <mxGeometry x="1060" y="640" width="100" height="40" as="geometry" />
        </mxCell>
        <mxCell id="SaBOYFDtfnJBCHH9wNTG-83" value="" style="endArrow=none;html=1;rounded=0;entryX=0;entryY=0;entryDx=0;entryDy=0;exitX=1;exitY=0.5;exitDx=0;exitDy=0;" edge="1" parent="1" source="SaBOYFDtfnJBCHH9wNTG-46" target="SaBOYFDtfnJBCHH9wNTG-82">
          <mxGeometry width="50" height="50" relative="1" as="geometry">
            <mxPoint x="670" y="640" as="sourcePoint" />
            <mxPoint x="720" y="590" as="targetPoint" />
          </mxGeometry>
        </mxCell>
        <mxCell id="SaBOYFDtfnJBCHH9wNTG-84" value="" style="endArrow=none;html=1;rounded=0;entryX=0;entryY=0.5;entryDx=0;entryDy=0;exitX=1;exitY=0.25;exitDx=0;exitDy=0;" edge="1" parent="1" source="SaBOYFDtfnJBCHH9wNTG-46" target="SaBOYFDtfnJBCHH9wNTG-81">
          <mxGeometry width="50" height="50" relative="1" as="geometry">
            <mxPoint x="670" y="640" as="sourcePoint" />
            <mxPoint x="720" y="590" as="targetPoint" />
          </mxGeometry>
        </mxCell>
        <mxCell id="SaBOYFDtfnJBCHH9wNTG-88" value="ΕΠΙΔΩΣΕΙΣ" style="shape=rhombus;perimeter=rhombusPerimeter;whiteSpace=wrap;html=1;align=center;" vertex="1" parent="1">
          <mxGeometry x="450" y="470" width="120" height="60" as="geometry" />
        </mxCell>
        <mxCell id="SaBOYFDtfnJBCHH9wNTG-89" value="" style="endArrow=none;html=1;rounded=0;entryX=0;entryY=0.5;entryDx=0;entryDy=0;exitX=1;exitY=0;exitDx=0;exitDy=0;" edge="1" parent="1" source="SaBOYFDtfnJBCHH9wNTG-23" target="SaBOYFDtfnJBCHH9wNTG-88">
          <mxGeometry width="50" height="50" relative="1" as="geometry">
            <mxPoint x="400" y="600" as="sourcePoint" />
            <mxPoint x="450" y="550" as="targetPoint" />
          </mxGeometry>
        </mxCell>
        <mxCell id="SaBOYFDtfnJBCHH9wNTG-90" value="" style="endArrow=none;html=1;rounded=0;entryX=0;entryY=1;entryDx=0;entryDy=0;exitX=1;exitY=0.5;exitDx=0;exitDy=0;" edge="1" parent="1" source="SaBOYFDtfnJBCHH9wNTG-88" target="SaBOYFDtfnJBCHH9wNTG-59">
          <mxGeometry width="50" height="50" relative="1" as="geometry">
            <mxPoint x="400" y="600" as="sourcePoint" />
            <mxPoint x="450" y="550" as="targetPoint" />
          </mxGeometry>
        </mxCell>
        <mxCell id="SaBOYFDtfnJBCHH9wNTG-95" value="Καλυτερος_Χρ" style="ellipse;whiteSpace=wrap;html=1;align=center;" vertex="1" parent="1">
          <mxGeometry x="960" y="460" width="100" height="40" as="geometry" />
        </mxCell>
        <mxCell id="SaBOYFDtfnJBCHH9wNTG-96" value="" style="endArrow=none;html=1;rounded=0;exitX=0.872;exitY=-0.02;exitDx=0;exitDy=0;exitPerimeter=0;entryX=0.5;entryY=1;entryDx=0;entryDy=0;" edge="1" parent="1" source="SaBOYFDtfnJBCHH9wNTG-46" target="SaBOYFDtfnJBCHH9wNTG-95">
          <mxGeometry width="50" height="50" relative="1" as="geometry">
            <mxPoint x="960" y="570" as="sourcePoint" />
            <mxPoint x="1040" y="500" as="targetPoint" />
          </mxGeometry>
        </mxCell>
        <mxCell id="SaBOYFDtfnJBCHH9wNTG-98" value="Χορηγοι" style="ellipse;shape=doubleEllipse;margin=3;whiteSpace=wrap;html=1;align=center;" vertex="1" parent="1">
          <mxGeometry x="820" y="850" width="100" height="40" as="geometry" />
        </mxCell>
        <mxCell id="SaBOYFDtfnJBCHH9wNTG-99" value="" style="endArrow=none;html=1;rounded=0;entryX=0;entryY=0.5;entryDx=0;entryDy=0;exitX=1;exitY=1;exitDx=0;exitDy=0;" edge="1" parent="1" source="SaBOYFDtfnJBCHH9wNTG-31" target="SaBOYFDtfnJBCHH9wNTG-98">
          <mxGeometry width="50" height="50" relative="1" as="geometry">
            <mxPoint x="700" y="820" as="sourcePoint" />
            <mxPoint x="750" y="770" as="targetPoint" />
          </mxGeometry>
        </mxCell>
        <mxCell id="SaBOYFDtfnJBCHH9wNTG-103" value="" style="endArrow=none;html=1;rounded=0;exitX=1;exitY=0;exitDx=0;exitDy=0;entryX=0.5;entryY=1;entryDx=0;entryDy=0;" edge="1" parent="1" source="SaBOYFDtfnJBCHH9wNTG-18" target="SaBOYFDtfnJBCHH9wNTG-105">
          <mxGeometry width="50" height="50" relative="1" as="geometry">
            <mxPoint x="325" y="505" as="sourcePoint" />
            <mxPoint x="350" y="490" as="targetPoint" />
          </mxGeometry>
        </mxCell>
        <mxCell id="SaBOYFDtfnJBCHH9wNTG-105" value="αρ_μελους" style="ellipse;whiteSpace=wrap;html=1;align=center;" vertex="1" parent="1">
          <mxGeometry x="310" y="460.00000000000006" width="100" height="40" as="geometry" />
        </mxCell>
        <mxCell id="SaBOYFDtfnJBCHH9wNTG-107" value="Αρ_συμμετοχων" style="ellipse;whiteSpace=wrap;html=1;align=center;" vertex="1" parent="1">
          <mxGeometry x="30" y="870" width="100" height="40" as="geometry" />
        </mxCell>
        <mxCell id="SaBOYFDtfnJBCHH9wNTG-108" value="" style="endArrow=none;html=1;rounded=0;entryX=0;entryY=1;entryDx=0;entryDy=0;exitX=1;exitY=0;exitDx=0;exitDy=0;" edge="1" parent="1" source="SaBOYFDtfnJBCHH9wNTG-107" target="SaBOYFDtfnJBCHH9wNTG-17">
          <mxGeometry width="50" height="50" relative="1" as="geometry">
            <mxPoint x="100" y="910" as="sourcePoint" />
            <mxPoint x="150" y="860" as="targetPoint" />
          </mxGeometry>
        </mxCell>
        <mxCell id="SaBOYFDtfnJBCHH9wNTG-109" value="Αρ_Αγωνισματων" style="ellipse;whiteSpace=wrap;html=1;align=center;" vertex="1" parent="1">
          <mxGeometry x="930" y="790" width="100" height="40" as="geometry" />
        </mxCell>
        <mxCell id="SaBOYFDtfnJBCHH9wNTG-110" value="" style="endArrow=none;html=1;rounded=0;entryX=1;entryY=1;entryDx=0;entryDy=0;exitX=0.5;exitY=0;exitDx=0;exitDy=0;" edge="1" parent="1" source="SaBOYFDtfnJBCHH9wNTG-109" target="SaBOYFDtfnJBCHH9wNTG-47">
          <mxGeometry width="50" height="50" relative="1" as="geometry">
            <mxPoint x="870" y="820" as="sourcePoint" />
            <mxPoint x="920" y="770" as="targetPoint" />
          </mxGeometry>
        </mxCell>
        <mxCell id="SaBOYFDtfnJBCHH9wNTG-111" value="Αρ_συμμετοχων" style="ellipse;whiteSpace=wrap;html=1;align=center;" vertex="1" parent="1">
          <mxGeometry x="740.0000000000001" y="130" width="100" height="40" as="geometry" />
        </mxCell>
        <mxCell id="SaBOYFDtfnJBCHH9wNTG-112" value="" style="endArrow=none;html=1;rounded=0;entryX=0;entryY=1;entryDx=0;entryDy=0;" edge="1" parent="1">
          <mxGeometry width="50" height="50" relative="1" as="geometry">
            <mxPoint x="883.6600000000001" y="120" as="sourcePoint" />
            <mxPoint x="883.6600000000001" y="115" as="targetPoint" />
          </mxGeometry>
        </mxCell>
        <mxCell id="SaBOYFDtfnJBCHH9wNTG-113" value="" style="endArrow=none;html=1;rounded=0;entryX=0.5;entryY=1;entryDx=0;entryDy=0;exitX=0.5;exitY=0;exitDx=0;exitDy=0;" edge="1" parent="1" source="SaBOYFDtfnJBCHH9wNTG-19" target="SaBOYFDtfnJBCHH9wNTG-111">
          <mxGeometry width="50" height="50" relative="1" as="geometry">
            <mxPoint x="620" y="220" as="sourcePoint" />
            <mxPoint x="670" y="170" as="targetPoint" />
          </mxGeometry>
        </mxCell>
      </root>
    </mxGraphModel>
  </diagram>
</mxfile>
